<?xml version="1.0" standalone="no"?><!DOCTYPE svg PUBLIC "-//W3C//DTD SVG 1.1//EN" "http://www.w3.org/Graphics/SVG/1.1/DTD/svg11.dtd"><svg t="1702305558456" class="icon" viewBox="0 0 1024 1024" version="1.1" xmlns="http://www.w3.org/2000/svg" p-id="27564" xmlns:xlink="http://www.w3.org/1999/xlink" width="500" height="500"><path d="M1019.475713 299.047872a51.197184 51.197184 0 0 0-29.182395-26.622535L768.097538 192.557729A145.911975 145.911975 0 0 0 679.014438 8.759838a147.44789 147.44789 0 0 0-186.869722 83.963382L269.436965 12.855613A51.197184 51.197184 0 0 0 204.928513 43.061952L138.372173 221.740124a51.197184 51.197184 0 0 0 0 39.421832 51.197184 51.197184 0 0 0 25.598592 24.574648L3.211607 728.080276a51.197184 51.197184 0 0 0 30.718311 66.044367L665.70317 1020.928169a51.197184 51.197184 0 0 0 17.407043 3.071831 51.197184 51.197184 0 0 0 48.125353-33.790142l162.807045-442.855642a51.197184 51.197184 0 0 0 14.335212 0 51.197184 51.197184 0 0 0 48.125353-33.790142l64.508452-175.606342a51.197184 51.197184 0 0 0-1.535915-38.90986zM282.748233 126.513362L504.944012 204.845054a51.197184 51.197184 0 0 0 65.532395-30.718311l16.383099-44.54155a45.053522 45.053522 0 0 1 57.340847-26.110564 44.029578 44.029578 0 0 1 25.08662 23.038733 42.493663 42.493663 0 0 1 0 32.766198l-14.847184 45.565494a51.197184 51.197184 0 0 0 30.718311 66.044367l221.683807 79.867607-30.206338 81.915495L252.541894 208.428856z m368.619725 781.26903l-129.016904-46.589438 63.996481-174.582398a51.197184 51.197184 0 1 0-96.250707-35.326057l-63.99648 175.09437-83.963382-30.206338 63.99648-174.582398a51.197184 51.197184 0 0 0-96.250706-35.326058L245.88626 761.358445 117.381328 716.816895l144.888031-394.218318L796.25599 512.028158z" fill="#ffffff" p-id="27565"></path></svg>