<?xml version="1.0" standalone="no"?><!DOCTYPE svg PUBLIC "-//W3C//DTD SVG 1.1//EN" "http://www.w3.org/Graphics/SVG/1.1/DTD/svg11.dtd"><svg t="1701959218392" class="icon" viewBox="0 0 1024 1024" version="1.1" xmlns="http://www.w3.org/2000/svg" p-id="18402" xmlns:xlink="http://www.w3.org/1999/xlink" width="500" height="500"><path d="M1012.3915 297.221c-276.295-276.295-724.404-276.295-1000.699 0-15.59 15.59-15.59 40.798 0 56.277 15.59 15.589 40.797 15.589 56.276 0 245.227-245.228 642.92-245.228 888.147 0 15.59 15.589 40.797 15.589 56.276 0 15.479-15.48 15.479-40.687 0-56.277z m-850.666 171.15c-15.59 15.59-15.59 40.798 0 56.277 15.59 15.59 40.797 15.59 56.276 0 162.306-162.306 425.554-162.306 587.86 0 15.589 15.59 40.797 15.59 56.276 0 15.59-15.59 15.59-40.798 0-56.276-193.374-193.374-506.928-193.374-700.412 0z m551.042 181.544l0.221-0.221c-110.562-110.562-289.783-110.562-400.235 0-15.59 15.59-15.59 40.797 0 56.276 15.59 15.59 40.797 15.59 56.276 0 79.494-79.494 208.3-79.494 287.683 0l0.221-0.221a40.39 40.39 0 0 0 2.985 3.317c15.59 15.589 40.798 15.589 56.277 0 15.589-15.59 15.589-40.798 0-56.276-1.217-0.996-2.322-1.88-3.428-2.875zM453.3885 874.909c0 32.974 26.73 59.704 59.704 59.704 32.973 0 59.703-26.73 59.703-59.704 0-32.973-26.73-59.704-59.703-59.704-32.974 0-59.704 26.73-59.704 59.704z" fill="#999999" p-id="18403"></path></svg>